<?xml version="1.0" encoding="UTF-8" standalone="no"?>
<svg
   xmlns:dc="http://purl.org/dc/elements/1.1/"
   xmlns:cc="http://creativecommons.org/ns#"
   xmlns:rdf="http://www.w3.org/1999/02/22-rdf-syntax-ns#"
   xmlns:svg="http://www.w3.org/2000/svg"
   xmlns="http://www.w3.org/2000/svg"
   viewBox="0 0 793.33331 1122.6667"
   height="1122.6667"
   width="793.33331"
   xml:space="preserve"
   id="svg2"
   version="1.1"><metadata
     id="metadata8"><rdf:RDF><cc:Work
         rdf:about=""><dc:format>image/svg+xml</dc:format><dc:type
           rdf:resource="http://purl.org/dc/dcmitype/StillImage" /></cc:Work></rdf:RDF></metadata><defs
     id="defs6"><clipPath
       id="clipPath20"
       clipPathUnits="userSpaceOnUse"><path
         id="path18"
         d="M 50,562 H 441 V 788 H 50 Z" /></clipPath><clipPath
       id="clipPath30"
       clipPathUnits="userSpaceOnUse"><path
         id="path28"
         d="M 50,572 H 389 V 788 H 50 Z" /></clipPath><clipPath
       id="clipPath44"
       clipPathUnits="userSpaceOnUse"><path
         id="path42"
         d="M 50,572 H 389 V 788 H 50 Z" /></clipPath><clipPath
       id="clipPath58"
       clipPathUnits="userSpaceOnUse"><path
         id="path56"
         d="M 50,572 H 389 V 788 H 50 Z" /></clipPath><clipPath
       id="clipPath72"
       clipPathUnits="userSpaceOnUse"><path
         id="path70"
         d="M 50,572 H 389 V 788 H 50 Z" /></clipPath><clipPath
       id="clipPath86"
       clipPathUnits="userSpaceOnUse"><path
         id="path84"
         d="M 50,572 H 389 V 788 H 50 Z" /></clipPath><clipPath
       id="clipPath100"
       clipPathUnits="userSpaceOnUse"><path
         id="path98"
         d="M 50,572 H 389 V 788 H 50 Z" /></clipPath><clipPath
       id="clipPath114"
       clipPathUnits="userSpaceOnUse"><path
         id="path112"
         d="M 50,572 H 389 V 788 H 50 Z" /></clipPath><clipPath
       id="clipPath128"
       clipPathUnits="userSpaceOnUse"><path
         id="path126"
         d="M 50,572 H 389 V 788 H 50 Z" /></clipPath><clipPath
       id="clipPath142"
       clipPathUnits="userSpaceOnUse"><path
         id="path140"
         d="M 50,572 H 389 V 788 H 50 Z" /></clipPath><clipPath
       id="clipPath156"
       clipPathUnits="userSpaceOnUse"><path
         id="path154"
         d="M 50,572 H 389 V 788 H 50 Z" /></clipPath><clipPath
       id="clipPath170"
       clipPathUnits="userSpaceOnUse"><path
         id="path168"
         d="M 50,572 H 389 V 788 H 50 Z" /></clipPath><clipPath
       id="clipPath184"
       clipPathUnits="userSpaceOnUse"><path
         id="path182"
         d="M 50,562 H 441 V 788 H 50 Z" /></clipPath></defs><g
     transform="matrix(1.3333333,0,0,-1.3333333,0,1122.6667)"
     id="g10"><g
       id="g12" /><g
       id="g14"><g
         clip-path="url(#clipPath20)"
         id="g16"><path
           id="path22"
           style="fill:#ffffff;fill-opacity:1;fill-rule:nonzero;stroke:none"
           d="M 50,787.9999 H 389.6665 V 571.1207 H 50 Z" /></g></g><g
       id="g24"><g
         clip-path="url(#clipPath30)"
         id="g26"><path
           id="path32"
           style="fill:#4472c4;fill-opacity:1;fill-rule:nonzero;stroke:none"
           d="m 219.8333,716.7299 c 30.8545,0 55.8671,-25.0125 55.8671,-55.8671 0,-0.3362 -0.003,-0.6724 -0.009,-1.0086 l -55.858,1.0086 v 55.8671 z" /><g
           transform="matrix(7.874016e-5,0,0,-7.874016e-5,163.9662,716.7299)"
           id="g34"><path
             id="path36"
             style="fill:none;stroke:#ffffff;stroke-width:25400;stroke-linecap:butt;stroke-linejoin:round;stroke-miterlimit:10;stroke-dasharray:none;stroke-opacity:1"
             d="m 709512,0 c 391853,0 709512,317659.3 709512,709512 0,4270.1 -38,8540.1 -116,12809.4 L 709512,709512 Z" /></g></g></g><g
       id="g38"><g
         clip-path="url(#clipPath44)"
         id="g40"><path
           id="path46"
           style="fill:#ed7d31;fill-opacity:1;fill-rule:nonzero;stroke:none"
           d="m 275.6912,659.8542 c -0.557,-30.8495 -26.0171,-55.4064 -56.8666,-54.8493 -30.8495,0.557 -55.4064,26.0171 -54.8493,56.8666 0.5499,30.4564 25.3966,54.8584 55.8579,54.8584 l 1e-4,-55.8671 z" /><g
           transform="matrix(7.874016e-5,0,0,-7.874016e-5,163.9662,716.7299)"
           id="g48"><path
             id="path50"
             style="fill:none;stroke:#ffffff;stroke-width:25400;stroke-linecap:butt;stroke-linejoin:round;stroke-miterlimit:10;stroke-dasharray:none;stroke-opacity:1"
             d="M 1418908,722321.1 C 1411833,1114110 1088491,1425982 696701.8,1418908 304913,1411834 -6959.578,1088491 114.8788,696702.2 7099.185,309906 322652,-0.3726021 709511.2,-0.3726021 L 709512,709512 Z" /></g></g></g><g
       id="g52"><g
         clip-path="url(#clipPath58)"
         id="g54"><g
           transform="translate(90.96831,541)"
           id="g60"><text
             id="text64"
             style="font-variant:normal;font-weight:normal;font-size:14px;font-family:Calibri;-inkscape-font-specification:Calibri;writing-mode:lr-tb;fill:#595959;fill-opacity:1;fill-rule:nonzero;stroke:none"
             transform="matrix(1,0,0,-1,0,226)"><tspan
               id="tspan62"
               y="0"
               x="0 6.0004001 9.0047998 15.9992 22.993601 28 34.9944 37.998798 44.993198 48.9916 51.995998 60.992401 67.986801 71.985199 77.985603 84.980003 91.974403 95.972801 101.9732 108.9676 115.962 125.9664 129.9648 139.96919 146.96359 153.95799 158.9644 165.9588 172.9532 177.95959 180.964 186.9644 193.9588 200.9532 205.95959 209.95799 216.95239 223.94679 228.9532 233.9456 240.94 247.9344 254.9288 257.9332">Figure 1: Do you know whether your personal </tspan></text>
</g></g></g><g
       id="g66"><g
         clip-path="url(#clipPath72)"
         id="g68"><g
           transform="translate(92.96831,524)"
           id="g74"><text
             id="text78"
             style="font-variant:normal;font-weight:normal;font-size:14px;font-family:Calibri;-inkscape-font-specification:Calibri;writing-mode:lr-tb;fill:#595959;fill-opacity:1;fill-rule:nonzero;stroke:none"
             transform="matrix(1,0,0,-1,0,226)"><tspan
               id="tspan76"
               y="0"
               x="0 3.0002 10.0044 13.9986 21.0028 26.004999 36.999199 44.003399 49.0056 52.005798 59.009998 66.014198 70.0084 77.012604 84.0168 91.021004 98.0252 103.0274 107.0216">information about e</tspan></text>
</g></g></g><g
       id="g80"><g
         clip-path="url(#clipPath86)"
         id="g82"><g
           transform="translate(206.9683,524)"
           id="g88"><text
             id="text92"
             style="font-variant:normal;font-weight:normal;font-size:14px;font-family:Calibri;-inkscape-font-specification:Calibri;writing-mode:lr-tb;fill:#595959;fill-opacity:1;fill-rule:nonzero;stroke:none"
             transform="matrix(1,0,0,-1,0,226)"><tspan
               id="tspan90"
               y="0"
               x="0">-</tspan></text>
</g></g></g><g
       id="g94"><g
         clip-path="url(#clipPath100)"
         id="g96"><g
           transform="translate(210.9683,524)"
           id="g102"><text
             id="text106"
             style="font-variant:normal;font-weight:normal;font-size:14px;font-family:Calibri;-inkscape-font-specification:Calibri;writing-mode:lr-tb;fill:#595959;fill-opacity:1;fill-rule:nonzero;stroke:none"
             transform="matrix(1,0,0,-1,0,226)"><tspan
               id="tspan104"
               y="0"
               x="0 10.9998 17.9956 21.0014 24.0072 27.013 31.0128 38.008598 45.004398 56.0042 63 66.999802 73.995598 78.989403 81.995201 88.990997 95.986801 100.9806 105.9744 115.9802 122.976 127.9698 134.96561">mail, name or password </tspan></text>
</g></g></g><g
       id="g108"><g
         clip-path="url(#clipPath114)"
         id="g110"><g
           transform="translate(104.9683,506)"
           id="g116"><text
             id="text120"
             style="font-variant:normal;font-weight:normal;font-size:14px;font-family:Calibri;-inkscape-font-specification:Calibri;writing-mode:lr-tb;fill:#595959;fill-opacity:1;fill-rule:nonzero;stroke:none"
             transform="matrix(1,0,0,-1,0,226)"><tspan
               id="tspan118"
               y="0"
               x="0 7 14 18.997999 23.002001 30.002001 37.001999 44.001999 51.001999 55.006001 60.004002 67.003998 74.003998 79.001999 86.001999 93.001999 95.998001 102.998 107.996 112 116.998 123.998 126.994 133.994 137.998 144.998 151.998 156.002 161 168 175 177.996 180.992 187.992 192.99001 199.99001 204.98801 211.98801 218.98801 223.98599 229.992">has been shared or sold on the internet? </tspan></text>
</g></g></g><g
       id="g122"><g
         clip-path="url(#clipPath128)"
         id="g124"><path
           id="path130"
           style="fill:#4472c4;fill-opacity:1;fill-rule:nonzero;stroke:none"
           d="m 199.3439,588.0299 h 4.9433 v -4.9433 h -4.9433 z" /><g
           transform="matrix(7.874016e-5,0,0,-7.874016e-5,199.3439,588.0299)"
           id="g132"><path
             id="path134"
             style="fill:none;stroke:#ffffff;stroke-width:19050;stroke-linecap:butt;stroke-linejoin:round;stroke-miterlimit:10;stroke-dasharray:none;stroke-opacity:1"
             d="M 0,0 H 62780 V 62780 H 0 Z" /></g></g></g><g
       id="g136"><g
         clip-path="url(#clipPath142)"
         id="g138"><g
           transform="translate(206.3838,357)"
           id="g144"><text
             id="text148"
             style="font-variant:normal;font-weight:normal;font-size:9px;font-family:Calibri;-inkscape-font-specification:Calibri;writing-mode:lr-tb;fill:#595959;fill-opacity:1;fill-rule:nonzero;stroke:none"
             transform="matrix(1,0,0,-1,0,226)"><tspan
               id="tspan146"
               y="0"
               x="0 3.9995999 8.9982004">YES</tspan></text>
</g></g></g><g
       id="g150"><g
         clip-path="url(#clipPath156)"
         id="g152"><path
           id="path158"
           style="fill:#ed7d31;fill-opacity:1;fill-rule:nonzero;stroke:none"
           d="m 225.1093,588.0299 h 4.9433 v -4.9433 h -4.9433 z" /><g
           transform="matrix(7.874016e-5,0,0,-7.874016e-5,225.1093,588.0299)"
           id="g160"><path
             id="path162"
             style="fill:none;stroke:#ffffff;stroke-width:19050;stroke-linecap:butt;stroke-linejoin:round;stroke-miterlimit:10;stroke-dasharray:none;stroke-opacity:1"
             d="M 0,0 H 62780 V 62780 H 0 Z" /></g></g></g><g
       id="g164"><g
         clip-path="url(#clipPath170)"
         id="g166"><g
           transform="translate(232.1492,357)"
           id="g172"><text
             id="text176"
             style="font-variant:normal;font-weight:normal;font-size:9px;font-family:Calibri;-inkscape-font-specification:Calibri;writing-mode:lr-tb;fill:#595959;fill-opacity:1;fill-rule:nonzero;stroke:none"
             transform="matrix(1,0,0,-1,0,226)"><tspan
               id="tspan174"
               y="0"
               x="0 6.0002999">NO</tspan></text>
</g></g></g><g
       id="g178"><g
         clip-path="url(#clipPath184)"
         id="g180"><g
           transform="matrix(7.874016e-5,0,0,-7.874016e-5,50,787.9999)"
           id="g186"><path
             id="path188"
             style="fill:none;stroke:#d9d9d9;stroke-width:12700;stroke-linecap:butt;stroke-linejoin:round;stroke-miterlimit:10;stroke-dasharray:none;stroke-opacity:1"
             d="M 0,0 H 4313765 V 2754366 H 0 Z" /></g></g></g></g></svg>